<svg width="40" height="32" viewBox="0 0 40 32" fill="none" xmlns="http://www.w3.org/2000/svg">
<!-- Outer window/frame same as reference -->
<path opacity="0.15" fill-rule="evenodd" clip-rule="evenodd" d="M3 1C1.89543 1 1 1.89543 1 3V28C1 29.1046 1.89543 30 3 30H37C38.1046 30 39 29.1046 39 28V3C39 1.89543 38.1046 1 37 1H3ZM36 9H4V28H36V9Z" fill="url(#paint0_linear)"/>
<path d="M37.6172 0.375H2.38281C1.06903 0.375 0 1.44403 0 2.75781V29.2422C0 30.556 1.06903 31.625 2.38281 31.625H37.6172C38.931 31.625 40 30.556 40 29.2422V2.75781C40 1.44403 38.931 0.375 37.6172 0.375ZM38.4375 29.2422C38.4375 29.6945 38.0695 30.0625 37.6172 30.0625H2.38281C1.93054 30.0625 1.5625 29.6945 1.5625 29.2422V2.75781C1.5625 2.30554 1.93054 1.9375 2.38281 1.9375H37.6172C38.0695 1.9375 38.4375 2.30554 38.4375 2.75781V29.2422Z" fill="url(#paint1_linear)"/>

<!-- Python-style interlocking shapes -->
<path d="M12 14C12 12.3431 13.3431 11 15 11H20C21.6569 11 23 12.3431 23 14V16C23 17.6569 21.6569 19 20 19H17V20.5C17 21.3284 16.3284 22 15.5 22H13C12.4477 22 12 21.5523 12 21V14Z" fill="url(#paint2_linear)"/>
<circle cx="18.5" cy="13.5" r="0.7" fill="white"/>

<path d="M28 18C28 16.3431 26.6569 15 25 15H20C18.3431 15 17 16.3431 17 18V20C17 21.6569 18.3431 23 20 23H23V24.5C23 25.3284 23.6716 26 24.5 26H27C27.5523 26 28 25.5523 28 25V18Z" fill="url(#paint3_linear)"/>
<circle cx="21.5" cy="17.5" r="0.7" fill="white"/>

<defs>
<linearGradient id="paint0_linear" x1="3" y1="1" x2="38" y2="30" gradientUnits="userSpaceOnUse">
<stop offset="0.26" stop-color="#FFDB6E"/>
<stop offset="1" stop-color="#FFBC5E"/>
</linearGradient>
<linearGradient id="paint1_linear" x1="0" y1="0" x2="40" y2="32" gradientUnits="userSpaceOnUse">
<stop offset="0.26" stop-color="#FFDB6E"/>
<stop offset="1" stop-color="#FFBC5E"/>
</linearGradient>
<linearGradient id="paint2_linear" x1="12" y1="11" x2="23" y2="22" gradientUnits="userSpaceOnUse">
<stop offset="0.26" stop-color="#FFDB6E"/>
<stop offset="1" stop-color="#FFBC5E"/>
</linearGradient>
<linearGradient id="paint3_linear" x1="17" y1="15" x2="28" y2="26" gradientUnits="userSpaceOnUse">
<stop offset="0.26" stop-color="#FFDB6E"/>
<stop offset="1" stop-color="#FFBC5E"/>
</linearGradient>
</defs>
</svg>